# xmcd CD database file
#
# Track frame offsets:
#	225
#	16957
#	40228
#	55950
#
# Disc length: 917 seconds
#
# Revision: 1
# Processed by: cddbd v1.5PL3 Copyright (c) Steve Scherf et al.
# Submitted via: CDex 1.50beta9
#
DISCID=2c039204
DTITLE=Rabsaris - EARTH
DYEAR=2002
DGENRE=Other
TTITLE0=EARTH
TTITLE1=Snow White(グルッポワン 「風の探索者〜グランドスラム」エンディングテーマ)
TTITLE2=名前をよんで
TTITLE3=グーズベリー
EXTD=YEAR: 2002.06.28
EXTT0=
EXTT1=
EXTT2=
EXTT3=
PLAYORDER=
